<svg xmlns="http://www.w3.org/2000/svg" viewBox="0 0 506.49 104.00" width="126.6" height="26.0" role="img" aria-label="HITROO">
  <title>HITROO</title>
  <g transform="translate(72.825 52.000) scale(0.95084)">
    <path fill="#2451FF" d="M10.852 -28.449A50 50 0 1 1 -10.953 -42.804A53.5 53.5 0 0 0 -22.042 -26.987A32 32 0 1 0 -0.433 -13.745A28.5 28.5 0 0 1 10.852 -28.449Z"/>
    <path fill="#0A1B4A" d="M-10.852 28.449A50 50 0 1 1 10.953 42.804A53.5 53.5 0 0 0 22.042 26.987A32 32 0 1 0 0.433 13.745A28.5 28.5 0 0 1 -10.852 28.449Z"/>
  </g>
  <path fill="#0A1633" d="M191.2071794971933 79.646484375V24.353515625H201.11675066800018V47.20996427536011H226.85000939221283V24.353515625H236.7595805630197V79.646484375H226.85000939221283V55.55503463745117H201.11675066800018V79.646484375Z M263.86276629300016 24.353515625V79.646484375H253.95319512219328V24.353515625Z M278.5923129162301 32.698585987091064V24.353515625H322.6217528423776V32.698585987091064H305.58556900830166V79.646484375H295.6759978374948V32.698585987091064Z M337.32608574719325 79.646484375V24.353515625H358.0152327427377Q364.36539334149256 24.353515625 368.70050400586024 26.57488226890564Q373.0356146702279 28.79624891281128 375.2584580788125 32.782532811164856Q377.4813014873971 36.76881670951843 377.4813014873971 42.038334369659424Q377.4813014873971 47.334569692611694 375.23841983170405 51.22659659385681Q372.995538176011 55.11862349510193 368.62554687352076 57.23237431049347Q364.2555555710305 59.34612512588501 357.8519596466531 59.34612512588501H343.1031982311715V51.13761019706726H356.5427805790414Q360.30718058438197 51.13761019706726 362.68664485306635 50.077757477760315Q365.06610912175074 49.01790475845337 366.2105655083169 46.98875081539154Q367.35502189488307 44.95959687232971 367.35502189488307 42.038334369659424Q367.35502189488307 39.069570779800415 366.2105655083169 36.979556918144226Q365.06610912175074 34.88954305648804 362.6747695812692 33.76883041858673Q360.2834300407876 32.648117780685425 356.49527949185267 32.648117780685425H347.23565691800013V79.646484375ZM368.42376917691126 79.646484375 355.0109588512887 54.572428941726685H365.83787268490687L379.526774586152 79.646484375Z M416.65400339932336 80.388671875Q409.4058067974557 80.388671875 403.6575727638711 77.01616942882538Q397.9093387302865 73.64366698265076 394.5843441662301 67.2927680015564Q391.2593496021737 60.941869020462036 391.2593496021737 52.037109375Q391.2593496021737 43.081881523132324 394.5843441662301 36.724303126335144Q397.9093387302865 30.366724729537964 403.6575727638711 26.989026427268982Q409.4058067974557 23.611328125 416.65400339932336 23.611328125Q423.90220000119103 23.611328125 429.6318793472756 26.989026427268982Q435.3615586933602 30.366724729537964 438.68135740132226 36.724303126335144Q442.0011561092843 43.081881523132324 442.0011561092843 52.037109375Q442.0011561092843 60.955227851867676 438.68135740132226 67.30612683296204Q435.3615586933602 73.6570258140564 429.6318793472756 77.0228488445282Q423.90220000119103 80.388671875 416.65400339932336 80.388671875ZM416.65400339932336 71.50626754760742Q421.1620676693429 71.50626754760742 424.63033105702294 69.26856136322021Q428.098594444703 67.03085517883301 430.07431306214227 62.678646206855774Q432.05003167958154 58.32643723487854 432.05003167958154 52.037109375Q432.05003167958154 45.6869215965271 430.07431306214227 41.328033208847046Q428.098594444703 36.96914482116699 424.63033105702294 34.731438636779785Q421.1620676693429 32.49373245239258 416.65400339932336 32.49373245239258Q412.1355474171151 32.49373245239258 408.6554087576379 34.743313908576965Q405.17527009816064 36.99289536476135 403.19287206501855 41.351783752441406Q401.21047403187646 45.71067214012146 401.21047403187646 52.037109375Q401.21047403187646 58.32643723487854 403.19287206501855 62.666770935058594Q405.17527009816064 67.00710463523865 408.6554087576379 69.25668609142303Q412.1355474171151 71.50626754760742 416.65400339932336 71.50626754760742Z M481.14415964932334 80.388671875Q473.89596304745567 80.388671875 468.14772901387107 77.01616942882538Q462.3994949802865 73.64366698265076 459.0745004162301 67.2927680015564Q455.7495058521737 60.941869020462036 455.7495058521737 52.037109375Q455.7495058521737 43.081881523132324 459.0745004162301 36.724303126335144Q462.3994949802865 30.366724729537964 468.14772901387107 26.989026427268982Q473.89596304745567 23.611328125 481.14415964932334 23.611328125Q488.392356251191 23.611328125 494.1220355972756 26.989026427268982Q499.8517149433602 30.366724729537964 503.17151365132224 36.724303126335144Q506.4913123592843 43.081881523132324 506.4913123592843 52.037109375Q506.4913123592843 60.955227851867676 503.17151365132224 67.30612683296204Q499.8517149433602 73.6570258140564 494.1220355972756 77.0228488445282Q488.392356251191 80.388671875 481.14415964932334 80.388671875ZM481.14415964932334 71.50626754760742Q485.6522239193429 71.50626754760742 489.1204873070229 69.26856136322021Q492.588750694703 67.03085517883301 494.56446931214225 62.678646206855774Q496.5401879295815 58.32643723487854 496.5401879295815 52.037109375Q496.5401879295815 45.6869215965271 494.56446931214225 41.328033208847046Q492.588750694703 36.96914482116699 489.1204873070229 34.731438636779785Q485.6522239193429 32.49373245239258 481.14415964932334 32.49373245239258Q476.6257036671151 32.49373245239258 473.14556500763786 34.743313908576965Q469.6654263481606 36.99289536476135 467.68302831501853 41.351783752441406Q465.70063028187644 45.71067214012146 465.70063028187644 52.037109375Q465.70063028187644 58.32643723487854 467.68302831501853 62.666770935058594Q469.6654263481606 67.00710463523865 473.14556500763786 69.25668609142303Q476.6257036671151 71.50626754760742 481.14415964932334 71.50626754760742Z"/>
</svg>
